<mxfile host="app.diagrams.net" modified="2023-10-05T00:09:10.996Z" agent="Mozilla/5.0 (Windows NT 10.0; Win64; x64; rv:109.0) Gecko/20100101 Firefox/117.0" version="21.6.2" etag="ImoeJ8CrXl1oF3tHcNEA" type="github">
  <diagram name="Page-1" id="YIjRGJwAvdLzjEUjeR9f">
    <mxGraphModel>
      <root>
        <mxCell id="0" />
        <mxCell id="1" parent="0" />
      </root>
    </mxGraphModel>
  </diagram>
</mxfile>
